<?xml version="1.0" encoding="utf-8"?>
<!-- Generator: Adobe Illustrator 16.0.0, SVG Export Plug-In . SVG Version: 6.00 Build 0)  -->
<!DOCTYPE svg PUBLIC "-//W3C//DTD SVG 1.1//EN" "http://www.w3.org/Graphics/SVG/1.1/DTD/svg11.dtd">
<svg version="1.1" id="Layer_1" xmlns="http://www.w3.org/2000/svg" xmlns:xlink="http://www.w3.org/1999/xlink" x="0px" y="0px"
	 width="60.943px" height="98.416px" viewBox="0 0 60.943 98.416" enable-background="new 0 0 60.943 98.416" xml:space="preserve">
<path fill-rule="evenodd" clip-rule="evenodd" fill="#34A853" d="M11.277,70.075c4.705,0,9.348,0,14.193,0
	c-0.206,0.676-4.421,11.331-10.49,26.768c-0.462,1.176-1.006,1.596-2.259,1.572C8.602,98.34,4.486,98.387,0.03,98.387
	C6.627,81.687,4.766,86.514,11.277,70.075z"/>
<path fill-rule="evenodd" clip-rule="evenodd" fill="#EA4335" d="M27.611,28.294c2.207-5.616,4.253-10.854,6.324-16.083
	c4.227-10.659-0.002,0.159,4.18-10.518c0.475-1.212,0.998-1.728,2.373-1.692c4.104,0.104,8.211,0.038,12.605,0.038
	c-0.713,1.866-1.297,3.444-1.916,5.008c-5.672,14.317-2.875,7.164-8.514,21.494c-0.494,1.258-1.059,1.838-2.525,1.795
	C36.085,28.216,32.024,28.294,27.611,28.294z"/>
<path fill-rule="evenodd" clip-rule="evenodd" fill="#666666" d="M25.553,69.883c1.414-3.583,2.615-6.767,3.965-9.886
	c0.197-0.455,1.095-0.836,1.682-0.855c2.74-0.089,5.486-0.039,8.527-0.039c-1.414-4.032-2.807-7.768-4-11.566
	c-0.316-1.009-0.318-2.32,0.043-3.304c1.768-4.791,3.707-9.517,5.76-14.707c6.541,16.289,12.924,32.185,19.443,48.42
	c-3.861,0-7.432,0.001-11.002,0c-4.113-0.002-4.113-0.003-5.447-3.889c-1.434-4.174-1.434-4.174-5.832-4.174
	C34.44,69.883,30.19,69.883,25.553,69.883z"/>
</svg>
