<?xml version="1.0" encoding="utf-8"?>
<!-- Generator: Adobe Illustrator 16.0.0, SVG Export Plug-In . SVG Version: 6.00 Build 0)  -->
<!DOCTYPE svg PUBLIC "-//W3C//DTD SVG 1.1//EN" "http://www.w3.org/Graphics/SVG/1.1/DTD/svg11.dtd">
<svg version="1.1" id="Layer_1" xmlns="http://www.w3.org/2000/svg" xmlns:xlink="http://www.w3.org/1999/xlink" x="0px" y="0px"
	 width="348.174px" height="98.416px" viewBox="0 0 348.174 98.416" enable-background="new 0 0 348.174 98.416"
	 xml:space="preserve">
<g>
	<g>
		<path fill="#4285F4" d="M4.393,78.148C1.8,78.148,0,76.204,0,73.684V32.785c0-2.592,1.8-4.464,4.393-4.464h20.234
			c9.433,0,14.545,6.408,14.545,13.753c0,3.24-0.936,6.409-3.96,9.073C40.9,53.379,43.42,57.771,43.42,63.1
			c0,8.28-5.617,15.049-16.417,15.049H4.393z M24.626,37.105H9.433v10.729h15.193c3.096,0,5.04-1.944,5.04-5.761
			C29.667,39.697,27.723,37.105,24.626,37.105z M9.433,69.363h17.569c8.353,0,8.353-12.744,0-12.744c-5.473,0-11.881,0-17.569,0
			V69.363z"/>
		<path fill="#4285F4" d="M52.415,32.641c0-5.905,9.505-6.121,9.505,0v41.115c0,5.977-9.505,6.121-9.505,0V32.641z"/>
		<path fill="#4285F4" d="M71.71,39.121c1.656-13.969,22.754-16.489,32.691-8.857c4.896,3.96-0.288,10.225-4.608,7.057
			c-5.329-3.384-17.425-4.968-18.938,2.521c-1.944,11.809,29.378,5.04,28.875,24.194c-0.504,18.29-27.002,18.722-36.939,10.513
			c-2.376-1.944-2.304-5.112-1.008-7.056c1.872-1.873,3.96-2.521,6.408-0.505c5.905,4.032,21.098,7.057,22.178-3.168
			C99.433,53.162,69.478,59.57,71.71,39.121z"/>
		<path fill="#4285F4" d="M168.338,60.939l10.729-29.667c2.16-5.833,10.873-3.096,8.713,3.168l-14.257,38.668
			c-1.297,4.104-2.521,5.328-4.969,5.328c-2.593,0-3.385-1.584-4.824-4.177l-12.529-28.442l-11.953,28.01
			c-1.296,3.024-2.52,4.752-5.112,4.752c-2.521,0-3.816-1.728-4.969-4.896L115.198,34.44c-2.161-6.48,6.984-8.856,8.856-3.168
			l10.657,29.667l12.745-29.667c1.728-4.393,6.265-4.608,8.137-0.216L168.338,60.939z"/>
	</g>
</g>
<g>
	<g>
		<path fill="#FBBC05" d="M267.696,32.641c0-6.049,9.505-6.049,9.505,0v28.442c0,11.305-5.4,18.146-17.857,18.146
			c-6.12,0-11.232-1.656-15.697-7.417c-3.672-4.392,3.24-10.729,6.984-6.12c3.024,3.744,6.265,4.608,9.434,4.464
			c4.032-0.144,7.561-1.944,7.632-9.072V32.641z"/>
		<path fill="#FBBC05" d="M288.214,32.641c0-5.905,9.504-6.121,9.504,0v41.115c0,5.977-9.504,6.121-9.504,0V32.641z"/>
		<path fill="#FBBC05" d="M321.91,37.321h-12.601c-6.265,0-6.265-9.217,0-9.217h34.059c6.409,0,6.409,9.217,0,9.217h-11.953v36.363
			c0,6.265-9.505,6.409-9.505,0V37.321z"/>
	</g>
</g>
<path fill-rule="evenodd" clip-rule="evenodd" fill="#34A853" d="M189.277,70.075c4.705,0,9.348,0,14.193,0
	c-0.206,0.676-4.421,11.331-10.49,26.768c-0.462,1.176-1.006,1.596-2.259,1.572c-4.119-0.075-8.235-0.028-12.691-0.028
	C184.627,81.687,182.766,86.514,189.277,70.075z"/>
<path fill-rule="evenodd" clip-rule="evenodd" fill="#EA4335" d="M205.611,28.294c2.207-5.616,4.253-10.854,6.324-16.083
	c4.226-10.659-0.003,0.159,4.179-10.518c0.475-1.212,0.998-1.728,2.374-1.692c4.104,0.104,8.211,0.038,12.605,0.038
	c-0.713,1.866-1.297,3.444-1.917,5.008c-5.672,14.317-2.875,7.164-8.513,21.494c-0.495,1.258-1.059,1.838-2.525,1.795
	C214.084,28.216,210.025,28.294,205.611,28.294z"/>
<path fill-rule="evenodd" clip-rule="evenodd" fill="#666666" d="M203.553,69.883c1.414-3.583,2.615-6.767,3.965-9.886
	c0.197-0.455,1.095-0.836,1.682-0.855c2.741-0.089,5.486-0.039,8.527-0.039c-1.413-4.032-2.806-7.768-3.999-11.566
	c-0.316-1.009-0.319-2.32,0.043-3.304c1.767-4.791,3.707-9.517,5.76-14.707c6.541,16.289,12.923,32.185,19.442,48.42
	c-3.861,0-7.432,0.001-11.001,0c-4.114-0.002-4.114-0.003-5.448-3.889c-1.433-4.174-1.433-4.174-5.831-4.174
	C212.441,69.883,208.19,69.883,203.553,69.883z"/>
</svg>
